<?xml version="1.0" standalone="no"?>
<!DOCTYPE svg PUBLIC "-//W3C//DTD SVG 20010904//EN"
 "http://www.w3.org/TR/2001/REC-SVG-20010904/DTD/svg10.dtd">
<svg version="1.0" xmlns="http://www.w3.org/2000/svg"
 width="474.000000pt" height="474.000000pt" viewBox="0 0 474.000000 474.000000"
 preserveAspectRatio="xMidYMid meet">
<metadata>
Created by potrace 1.14, written by Peter Selinger 2001-2017
</metadata>
<g transform="translate(0.000000,474.000000) scale(0.100000,-0.100000)"
fill="#000000" stroke="none">
<path d="M0 2370 l0 -2370 2370 0 2370 0 0 2370 0 2370 -2370 0 -2370 0 0
-2370z m1810 1910 c0 -5 -4 -10 -10 -10 -5 0 -10 5 -10 10 0 6 5 10 10 10 6 0
10 -4 10 -10z m-1240 -85 c0 -8 -7 -15 -15 -15 -8 0 -15 7 -15 15 0 8 7 15 15
15 8 0 15 -7 15 -15z m305 -15 c-3 -5 -10 -10 -16 -10 -5 0 -9 5 -9 10 0 6 7
10 16 10 8 0 12 -4 9 -10z m13 -29 c10 -6 10 -10 -2 -21 -9 -7 -13 -16 -10
-21 3 -5 -2 -9 -11 -9 -18 0 -30 24 -21 45 6 17 24 19 44 6z m-33 -102 c-10
-15 -25 -10 -19 6 4 8 10 12 15 9 5 -3 7 -10 4 -15z m-575 -79 c0 -5 -4 -10
-10 -10 -5 0 -10 5 -10 10 0 6 5 10 10 10 6 0 10 -4 10 -10z m600 -60 c0 -5
-5 -10 -11 -10 -5 0 -7 5 -4 10 3 6 8 10 11 10 2 0 4 -4 4 -10z m-130 -140 c0
-5 -4 -10 -10 -10 -5 0 -10 5 -10 10 0 6 5 10 10 10 6 0 10 -4 10 -10z m110
-10 c8 -5 11 -12 8 -16 -4 -3 -14 1 -23 10 -18 17 -9 21 15 6z m490 -20 c0 -5
-2 -10 -4 -10 -3 0 -8 5 -11 10 -3 6 -1 10 4 10 6 0 11 -4 11 -10z m-640 -41
c0 -5 -7 -9 -15 -9 -15 0 -20 12 -9 23 8 8 24 -1 24 -14z m1081 -17 c-7 -2
-18 1 -23 6 -8 8 -4 9 13 5 13 -4 18 -8 10 -11z m1549 -37 c0 -8 -4 -15 -10
-15 -5 0 -10 7 -10 15 0 8 5 15 10 15 6 0 10 -7 10 -15z m-2190 -5 c0 -5 -5
-10 -11 -10 -5 0 -7 5 -4 10 3 6 8 10 11 10 2 0 4 -4 4 -10z m1733 -35 c-3 -8
-9 -15 -14 -15 -10 0 -12 24 -3 33 11 11 24 -3 17 -18z m-1327 -60 c15 -14 21
-25 15 -25 -7 0 -10 -4 -6 -9 12 -20 -15 -21 -35 -1 -17 17 -24 19 -36 9 -21
-17 -30 -3 -10 17 14 13 14 19 4 32 -22 26 36 6 68 -23z m1458 -6 c-3 -5 -10
-7 -15 -3 -5 3 -7 10 -3 15 3 5 10 7 15 3 5 -3 7 -10 3 -15z m-1800 -175 c7
-17 0 -34 -14 -34 -11 0 -21 30 -14 41 8 14 21 11 28 -7z m563 -10 c-9 -9 -28
6 -21 18 4 6 10 6 17 -1 6 -6 8 -13 4 -17z m-617 -74 c0 -5 -4 -10 -10 -10 -5
0 -10 5 -10 10 0 6 5 10 10 10 6 0 10 -4 10 -10z m1620 0 c0 -5 -5 -10 -11
-10 -5 0 -7 5 -4 10 3 6 8 10 11 10 2 0 4 -4 4 -10z m-1570 -76 c0 -9 -5 -14
-12 -12 -18 6 -21 28 -4 28 9 0 16 -7 16 -16z m1786 5 c8 -14 -11 -33 -25 -25
-11 7 -4 36 9 36 5 0 12 -5 16 -11z m-1696 -74 c0 -8 -4 -15 -10 -15 -5 0 -10
7 -10 15 0 8 -4 15 -10 15 -5 0 -10 5 -10 10 0 7 6 7 20 0 11 -6 20 -17 20
-25z m397 0 c8 -9 12 -19 8 -23 -4 -4 -10 -1 -12 6 -3 6 -11 12 -19 12 -9 0
-12 5 -9 10 8 14 14 13 32 -5z m-361 -22 c-10 -10 -19 5 -10 18 6 11 8 11 12
0 2 -7 1 -15 -2 -18z m385 -16 c-10 -9 -11 -8 -5 6 3 10 9 15 12 12 3 -3 0
-11 -7 -18z m-401 -6 c0 -5 8 -7 19 -4 26 7 36 -14 16 -33 -15 -15 -18 -15
-40 6 -14 13 -22 27 -19 31 7 12 24 11 24 0z m770 -21 c0 -5 -4 -10 -10 -10
-5 0 -10 5 -10 10 0 6 5 10 10 10 6 0 10 -4 10 -10z m-490 -31 c0 -6 -4 -7
-10 -4 -5 3 -10 11 -10 16 0 6 5 7 10 4 6 -3 10 -11 10 -16z m-225 -68 c-6 -5
-25 10 -25 20 0 5 6 4 14 -3 8 -7 12 -15 11 -17z m311 -38 c-7 -7 -26 7 -26
19 0 6 6 6 15 -2 9 -7 13 -15 11 -17z m-262 -57 c-5 -12 -2 -15 12 -10 16 5
16 4 4 -5 -18 -13 -47 -14 -54 -2 -3 5 -1 23 5 40 11 31 12 31 25 12 8 -10 11
-27 8 -35z m276 28 c0 -2 -7 -4 -15 -4 -8 0 -15 4 -15 10 0 5 7 7 15 4 8 -4
15 -8 15 -10z m-227 -112 c1 -20 7 -30 14 -28 6 3 14 -6 17 -19 3 -13 15 -26
25 -30 11 -3 22 -12 25 -20 3 -10 0 -12 -12 -8 -15 6 -15 5 -3 -11 8 -9 20
-15 28 -12 9 4 11 1 7 -7 -5 -8 -2 -7 9 2 15 12 17 11 17 -3 0 -25 -38 -19
-63 11 -12 15 -35 40 -52 55 -16 15 -26 28 -21 28 5 0 2 8 -5 17 -10 11 -10
14 -1 9 21 -13 13 12 -9 28 -15 10 -19 21 -15 32 6 16 8 16 22 3 8 -9 16 -30
17 -47z m44 36 c-3 -8 -6 -5 -6 6 -1 11 2 17 5 13 3 -3 4 -12 1 -19z m411 -36
c2 -7 -2 -10 -12 -6 -9 3 -16 11 -16 16 0 13 23 5 28 -10z m192 -32 c0 -5 -5
-10 -11 -10 -5 0 -7 5 -4 10 3 6 8 10 11 10 2 0 4 -4 4 -10z m-315 -57 c0 -12
3 -25 8 -29 4 -4 7 -1 7 6 0 7 11 -4 25 -24 29 -42 35 -77 10 -56 -8 7 -12 16
-9 21 3 5 0 9 -5 9 -6 0 -11 9 -11 20 0 11 -3 19 -7 18 -20 -5 -52 14 -46 27
3 8 9 12 14 9 5 -3 9 -1 9 5 0 5 -5 12 -10 14 -6 3 -5 4 2 3 7 -2 13 -12 13
-23z m2445 12 c0 -8 -4 -15 -9 -15 -13 0 -22 16 -14 24 11 11 23 6 23 -9z
m-2110 -59 c0 -3 -4 -8 -10 -11 -5 -3 -10 -1 -10 4 0 6 5 11 10 11 6 0 10 -2
10 -4z m-540 -91 c0 -7 -7 -16 -16 -19 -21 -8 -24 -8 -24 5 0 5 5 7 10 4 14
-8 13 8 -1 22 -9 9 -7 10 10 6 11 -3 21 -11 21 -18z m86 0 c-3 -8 0 -15 6 -15
9 0 9 -3 0 -12 -6 -6 -14 -9 -18 -6 -6 7 4 48 13 48 3 0 3 -7 -1 -15z m-46
-25 c0 -5 -5 -10 -11 -10 -5 0 -7 5 -4 10 3 6 8 10 11 10 2 0 4 -4 4 -10z
m1015 0 c3 -5 1 -10 -4 -10 -6 0 -11 5 -11 10 0 6 2 10 4 10 3 0 8 -4 11 -10z
m-1003 -46 c-3 -15 -8 -22 -14 -16 -9 9 -1 42 12 42 4 0 5 -12 2 -26z m278 5
c11 -19 10 -20 -9 -9 -22 11 -29 30 -11 30 5 0 14 -9 20 -21z m254 -15 c9 -8
21 -12 27 -8 7 4 9 3 6 -3 -4 -6 2 -18 13 -28 20 -18 26 -60 12 -82 -7 -10
-47 -18 -84 -15 -44 4 -77 103 -46 139 14 18 53 16 72 -3z m-494 -4 c0 -5 -4
-10 -10 -10 -5 0 -10 5 -10 10 0 6 5 10 10 10 6 0 10 -4 10 -10z m70 -12 c0
-13 -23 -5 -28 10 -2 7 2 10 12 6 9 -3 16 -11 16 -16z m-6 -83 c-4 -8 -11 -12
-16 -9 -6 4 -5 10 3 15 19 12 19 11 13 -6z m13 -29 c-3 -7 0 -19 6 -26 8 -8 5
-8 -10 1 -26 16 -29 25 -10 32 19 8 19 8 14 -7z m60 -53 c4 -10 11 -21 17 -25
6 -4 7 -10 3 -14 -8 -8 -47 29 -47 46 0 17 20 11 27 -7z m-62 -3 c3 -5 1 -10
-4 -10 -6 0 -11 5 -11 10 0 6 2 10 4 10 3 0 8 -4 11 -10z m133 -60 c14 0 15
-2 2 -10 -9 -5 -19 -5 -26 0 -6 6 -14 7 -17 3 -4 -3 -7 -1 -7 5 0 13 24 22 28
11 2 -5 11 -9 20 -9z m792 -40 c0 -5 -7 -10 -15 -10 -8 0 -15 5 -15 10 0 6 7
10 15 10 8 0 15 -4 15 -10z m105 -180 c-11 -18 -22 -11 -19 13 4 33 4 33 15
14 5 -9 7 -22 4 -27z m420 -290 c2 -4 -5 -7 -17 -6 -12 0 -23 6 -25 13 -4 12
34 6 42 -7z m-215 -18 c0 -15 -2 -15 -10 -2 -13 20 -13 33 0 25 6 -3 10 -14
10 -23z m233 -16 c3 -8 0 -17 -7 -19 -10 -4 -12 1 -9 14 6 23 9 24 16 5z
m-1023 -5 c0 -14 -18 -23 -30 -16 -6 4 -8 11 -5 16 8 12 35 12 35 0z m405 -20
c3 -5 1 -12 -5 -16 -5 -3 -10 1 -10 9 0 18 6 21 15 7z m375 -21 c0 -5 -5 -10
-11 -10 -5 0 -7 5 -4 10 3 6 8 10 11 10 2 0 4 -4 4 -10z m-257 -53 c-3 -5 -9
-3 -14 4 -4 7 -5 17 -2 22 3 5 9 3 14 -4 4 -7 5 -17 2 -22z m-1693 -22 c0 -8
-7 -15 -15 -15 -8 0 -15 7 -15 15 0 8 7 15 15 15 8 0 15 -7 15 -15z m1938 -88
c15 -24 15 -29 2 -37 -13 -9 -13 -11 0 -20 25 -16 -4 -36 -33 -23 -19 9 -23
18 -23 49 1 68 24 81 54 31z m1072 -27 c0 -5 -4 -10 -10 -10 -5 0 -10 5 -10
10 0 6 5 10 10 10 6 0 10 -4 10 -10z m-1605 -100 c0 -8 -8 -16 -17 -18 -13 -2
-18 3 -18 18 0 15 5 20 18 18 9 -2 17 -10 17 -18z m1045 -21 c0 -5 -7 -9 -15
-9 -15 0 -20 12 -9 23 8 8 24 -1 24 -14z m-1959 -2 c-1 -12 -15 -9 -19 4 -3 6
1 10 8 8 6 -3 11 -8 11 -12z m1509 -37 c13 -25 13 -25 -8 -6 -12 10 -19 23
-16 28 7 11 7 11 24 -22z m-43 -74 c11 -18 18 -37 15 -42 -11 -15 -32 -15 -32
0 0 10 -8 13 -25 10 -14 -2 -25 0 -25 6 0 5 6 10 13 10 9 0 9 2 -1 9 -11 7
-12 12 -1 29 16 25 28 20 56 -22z m53 24 c0 -5 -2 -10 -4 -10 -3 0 -8 5 -11
10 -3 6 -1 10 4 10 6 0 11 -4 11 -10z m-220 -54 c0 -2 -11 -1 -25 2 -14 2 -22
8 -19 13 4 8 44 -6 44 -15z m124 -29 c10 -10 10 -18 0 -42 -10 -24 -14 -27
-19 -13 -4 9 -4 21 -1 27 3 5 1 11 -6 13 -6 2 -8 10 -4 16 9 15 14 15 30 -1z
m-174 -12 c0 -8 -4 -15 -10 -15 -5 0 -10 7 -10 15 0 8 5 15 10 15 6 0 10 -7
10 -15z m-130 1 c0 -3 -4 -8 -10 -11 -5 -3 -10 -1 -10 4 0 6 5 11 10 11 6 0
10 -2 10 -4z m371 -30 c-9 -11 -9 -15 1 -19 7 -2 10 -7 7 -11 -3 -4 -17 3 -30
14 -14 12 -17 18 -8 14 10 -3 20 -1 24 5 3 6 9 11 12 11 3 0 0 -6 -6 -14z
m-40 -63 c-21 -30 -51 -30 -50 0 0 12 3 16 6 10 2 -7 12 -13 21 -13 12 0 13 3
5 11 -16 16 6 40 23 25 8 -8 7 -16 -5 -33z m-1991 -187 c0 -20 -19 -31 -32
-18 -6 6 -7 15 -4 21 10 16 36 13 36 -3z m2170 -103 c0 -12 -2 -12 -15 1 -8 8
-15 17 -15 20 0 3 7 3 15 0 8 -4 15 -13 15 -21z m230 17 c0 -5 -4 -10 -10 -10
-5 0 -10 5 -10 10 0 6 5 10 10 10 6 0 10 -4 10 -10z m-150 -40 c0 -5 -4 -10
-10 -10 -5 0 -10 5 -10 10 0 6 5 10 10 10 6 0 10 -4 10 -10z m60 -30 c0 -5 -4
-10 -10 -10 -5 0 -10 5 -10 10 0 6 5 10 10 10 6 0 10 -4 10 -10z m-2850 -44
c0 -3 -4 -8 -10 -11 -5 -3 -10 -1 -10 4 0 6 5 11 10 11 6 0 10 -2 10 -4z
m1680 -316 c0 -5 -4 -10 -10 -10 -5 0 -10 5 -10 10 0 6 5 10 10 10 6 0 10 -4
10 -10z"/>
</g>
</svg>
